<?xml version="1.0" standalone="no"?>
<!DOCTYPE svg PUBLIC "-//W3C//DTD SVG 1.1//EN" "http://www.w3.org/Graphics/SVG/1.1/DTD/svg11.dtd" >
<svg xmlns="http://www.w3.org/2000/svg">
<metadata>Generated by IcoMoon</metadata>
<defs>
<font id="icomoon" horiz-adv-x="1024">
<font-face units-per-em="1024" ascent="960" descent="-64" />
<missing-glyph horiz-adv-x="1024" />
<glyph unicode="&#x20;" horiz-adv-x="512" d="" />
<glyph unicode="&#xe900;" glyph-name="analysis" d="M813.595 433.148c11.515-6.604 27.172-9.112 44.423-9.112 17.803 0 36.513 4.092 50.684 15.648 13.93 11.36 23.479 30.034 23.479 47.255 0 16.476-12.090 37.969-28.155 50.424-11.771 9.126-31.676 12.478-46.009 12.478-14.112 0-31.678-2.747-44.423-9.523v49.478h-4.065l104.911 60.376-6.973 13.108c-36.84 69.254-90.967 127.49-156.527 168.413-67.568 42.177-145.243 64.47-224.627 64.47-58.712 0-115.671-11.874-169.296-35.296-51.754-22.604-98.222-54.952-138.116-96.144-39.858-41.159-71.149-89.081-93.005-142.435-22.616-55.216-34.084-113.855-34.084-174.29s11.468-119.074 34.084-174.288c21.855-53.355 53.147-101.278 93.005-142.435 39.893-41.192 86.362-73.539 138.116-96.143 53.624-23.42 110.584-35.295 169.296-35.295 81.334 0 160.644 23.327 229.355 67.46 66.735 42.864 121.033 103.565 157.025 175.539l6.558 13.115-105.659 59.018v118.177zM784.282 331.343l-215.091 120.142 213.706 122.985v-242.217l1.385-0.911zM526.317 30.536c-222.657 0-403.801 187.273-403.801 417.463 0 230.192 181.145 417.466 403.801 417.466 142.484 0 274.069-77.64 346.854-203.624l-119.396-68.711c-46.655 78.167-130.304 130.28-225.753 130.28-146.36 0-265.011-122.518-265.011-273.65s118.649-273.649 265.011-273.649c97.53 0 182.747 54.409 228.757 135.43l121.684-67.969c-71.607-131.79-205.242-213.036-352.146-213.036z" />
<glyph unicode="&#xe901;" glyph-name="caseBase" d="M596.715 451.371c-9.408 7.040-23.616 7.040-33.067-0.021l-143.637-107.435c-5.163-3.861-6.101-11.051-2.133-16.043 3.968-5.013 11.371-5.952 16.533-2.069l18.667 13.973v-117.141c0-12.608 10.581-22.891 23.573-22.891h59.264c12.992 0 23.573 10.261 23.573 22.891v50.496h41.536v-50.496c0-12.608 10.581-22.891 23.573-22.891h59.627c12.992 0 23.573 10.261 23.573 22.891v117.077l18.688-13.931c2.133-1.6 4.672-2.368 7.168-2.368 3.541 0 7.040 1.536 9.365 4.48 3.968 5.013 2.987 12.203-2.155 16.043l-144.149 107.435zM684.224 222.613h-59.627v50.496c0 12.608-10.581 22.891-23.573 22.891h-41.536c-12.992 0-23.573-10.261-23.573-22.891v-50.496h-59.264v134.763l101.376 75.84c0.917 0.683 3.413 0.683 4.309 0.021l101.888-75.947v-134.677zM878.549 637.163h-5.888v49.515c0 31.637-29.077 57.365-64.832 57.365h-252.928c-16.256 0-29.461 12.821-29.461 28.608v49.749c0 34.709-29.077 62.933-64.832 62.933h-268.139c-78.165 0-117.803-35.2-117.803-104.619v-671.147c0-60.779 32.128-96.491 88.405-98.795l680.171-0.107c68.416 0 106.091 36.245 106.091 102.059v448.981c0 50.069-23.808 75.456-70.784 75.456zM221.995 561.707v-452.139c0-55.211-29.291-64-55.979-64.555-26.688 0.555-55.979 9.344-55.979 64.555v671.147c0 61.781 39.637 70.293 82.453 70.293h268.117c16.256 0 29.461-12.821 29.461-28.608v-49.728c0-34.688 29.077-62.933 64.832-62.933h252.928c15.979 0 29.461-10.56 29.461-23.040v-49.515h-552.469c-62.827-0.021-62.827-49.109-62.827-75.477zM913.984 112.725c0-47.467-21.141-67.712-70.72-67.712h-603.605c11.584 16.277 17.707 38.037 17.707 64.576v452.117c0 39.147 7.061 41.131 27.456 41.131h593.728c23.488 0 35.435-6.357 35.435-41.131v-448.981z" />
<glyph unicode="&#xe902;" d="M413.9 9.8l48.3 176.5c13.6 49.6 51.1 60.4 94.7 72.9 30 8.6 63.7 18.3 90.4 47.1 1.1-1.1 2-2.4 3.2-3.5 8.9-8.8 20.5-14.9 33.4-17.1-33.9-42.1-77.3-54.6-115.9-65.6-31.9-9.1-59.3-17-66.7-44.4l-45.3-165.9h-42.1zM636 325.3h-242.4l-24-75.7c-10.2 7.8-22.9 12.3-36.7 12.3h-2l20.1 63.4h-120c3.4 13.2 3.4 27.2 0 40.6h132.7l22.4 70.4c11.6-6.7 24.8-11 38.8-12.3l-18.4-58.1h220.8l-127.7 84.6c9.9 9.5 17.5 21.1 22.4 33.9l134.7-89.4c-2.4-1.9-4.7-3.7-6.9-6-16-16.6-21.6-41.5-13.8-63.7zM388.9 225.2c2.2 0.4 25.2 4.3 25.2 4.3 14.5 3 27.6-10.6 23.7-25.2l-52.2-194.6h-42.1l43.8 163.4c4.3 8.4 6.7 17.7 6.7 27.8 0 8.9-1.7 17.1-5.1 24.3zM273.4 188c-46.4 11.1-85.4 35.4-114.4 73.6 14.7 1.7 28.3 7.3 39.7 15.7 21.6-24.6 48.5-40.4 79.8-48.6-6.4-12.6-8.3-27.1-5.1-40.7zM102 416.6c-5.6 50.5-0.4 101.2 15.3 149.6 10.8-8.4 23.3-14.7 37.1-17.9-11.6-38.2-15.8-78.1-12.7-118-14.8-1.2-28.2-6.1-39.7-13.7zM218 725.8c55.3 52.9 124.5 89.6 199.4 105.7-1.9-13.6-0.2-27.6 4.5-40.6-64.1-14.5-123.9-46-172-90.9-8.6 10.9-19.4 19.6-31.9 25.8zM585.5 832.2c40.3-8.2 82.2-22 122.2-41-9.3-9.9-16.8-21.6-21.2-34.8-34.5 16-70.4 28-105.1 35.2 4.5 13 6 27 4.1 40.6zM858.4 677.7c18.6-22.5 33.9-47.3 45.1-74.2-14 0.2-27.8-3-40.3-9.3-8.6 19-19.6 36.7-32.6 53.5 11.2 7.8 20.7 18.1 27.8 30zM911.8 434.5c-24.8-72.5-88.9-100.4-160.1-107.3 1.9 6 3 12.1 3 18.6 0 7.8-1.5 15.1-4.1 22 50.5 5.4 98.4 22 119.6 72.1 13.3-5.2 27.7-7.1 41.6-5.4zM686.5 406.5c6.3 30.2 13 60.9 19.9 91.9h-180c3 13.2 3 27.2 0 40.6h189c7.5 33.4 14.9 66.5 22.2 99.9 12.7-5.6 25.9-8.2 39.7-8.2-6.5-30.2-13.4-60.9-20.3-91.7h62.2c-1.7-6.5-2.4-13.2-2.4-20.3 0-6.9 0.9-13.8 2.4-20.3h-71.4c-7.6-33.7-14.9-67.5-22-100.8-11.5 7.5-25.5 10.4-39.3 8.9zM341 540l-90 42.7c8.2 10.6 14.3 23.1 17.3 36.7l90-42.7c-7.9-10.6-14.1-23.1-17.3-36.7zM206.1 408.2l137.3 80.7c4.3-13.2 11.4-25 20.5-34.8l-135.5-79.8c-4.4 13-12.2 24.6-22.3 33.9zM435.1 613.6l10.4 44.7-175-24.8c0.2 2.4 0.2 4.7 0.2 7.1 0 11.6-2 22.7-6 33.2l190.6 27 10.1 42.9c10.8-5 22.9-7.8 35.8-7.8 1.3 0 2.8 0 4.1 0.2l-6.9-28.9 182.8 25.7c-0.9-13.6 0.9-27.4 5.6-40.3l-198.5-28-14.2-60.2c-11.4 5.6-24.8 9-39 9.2z" />
<glyph unicode="&#xe903;" d="M693.6 379.7c18.8 0 33.9-15.3 33.9-33.9 0-18.8-15.3-33.9-33.9-33.9-18.8 0-33.9 15.1-33.9 33.9s15.3 33.9 33.9 33.9zM333 234.9c18.8 0 33.9-15.3 33.9-33.9s-15.1-33.9-33.9-33.9-33.9 15.3-33.9 33.9 15.1 33.9 33.9 33.9zM433.7 586.6c37.5 0 67.8-30.4 67.8-67.8s-30.4-67.8-67.8-67.8-67.8 30.4-67.8 67.8 30.3 67.8 67.8 67.8zM175.9 708.6c37.5 0 67.8-30.4 67.8-67.8s-30.3-67.8-67.8-67.8-67.8 30.4-67.8 67.8 30.4 67.8 67.8 67.8zM148.7 403.6c31.9 0 57.6-25.9 57.6-57.6 0-31.9-25.9-57.6-57.6-57.6-31.9 0-57.6 25.9-57.6 57.6s25.8 57.6 57.6 57.6zM501.5 878.2c31.9 0 57.6-25.9 57.6-57.6 0-31.9-25.9-57.6-57.6-57.6-31.9 0-57.6 25.9-57.6 57.6s25.7 57.6 57.6 57.6zM776.4 793.4c37.5 0 67.8-30.4 67.8-67.8s-30.4-67.8-67.8-67.8c-37.5 0-67.8 30.4-67.8 67.8s30.3 67.8 67.8 67.8zM901.8 576.3c31.9 0 57.6-25.9 57.6-57.6 0-31.9-25.9-57.6-57.6-57.6-31.9 0-57.6 25.9-57.6 57.6s25.7 57.6 57.6 57.6z" />
<glyph unicode="&#xe904;" d="M417.1 505.6c0.2-4.9 1.2-8.6 3.2-10.9 1.9-2.5 5.6-3.9 10.7-4.4v27c-7 1.2-12.3 3.3-15.2 6.5-3.2 3.2-4.7 7.2-4.7 12.3 0 5.4 1.6 9.6 4.9 13 3.3 3.2 8.2 5.1 15.1 5.6v8.6h6v-8.6c6.7-0.7 11.4-2.6 14.4-5.8s4.4-7.4 4.4-12.4h-7.4c-0.5 3.9-1.6 6.7-3.2 8.6s-4.4 3-8.2 3.2v-24.3c2.3-0.5 4-1.1 5.4-1.4 1.4-0.4 2.5-0.7 3.5-1.1 0.9-0.4 1.6-0.7 2.1-1.1s1.2-0.7 2.1-1.2c2.6-1.8 4.7-3.9 6-6.3 1.2-2.5 1.9-5.4 1.9-9.1 0-6-1.8-10.7-5.1-13.8-3.3-3.3-8.6-5.3-15.8-5.8v-9.6h-6v9.4c-7.7 0.5-13.3 2.8-16.6 6.3-3.3 3.7-4.9 8.8-4.9 15.4l7.4-0.1zM421.1 529.2c1.8-1.9 5.1-3.3 9.8-4.2v23.3c-4.4-0.2-7.5-1.2-9.5-3.3-2.1-2.1-3-4.7-3-8.2-0.1-3.2 0.8-5.8 2.7-7.6zM447.4 511.4c-1.9 2.3-5.4 3.9-10.5 4.9v-25.9c4.2 0.2 7.5 1.4 9.8 3.7s3.5 5.3 3.5 8.8c0 3.4-0.9 6.4-2.8 8.5z" />
<glyph unicode="&#xe905;" glyph-name="contrast" d="M901.181 939.521h-777.861c-68.774 0-123.319-54.545-123.319-123.319v-552.566c0-68.774 54.545-123.319 123.319-123.319h777.861c68.774 0 123.319 54.545 123.319 123.319v552.566c0 68.774-54.545 123.319-123.319 123.319zM955.726 263.635c0-30.83-23.715-54.545-54.545-54.545h-777.861c-30.83 0-54.545 23.715-54.545 54.545v552.566c0 30.83 23.715 54.545 54.545 54.545h777.861c30.83 0 54.545-23.715 54.545-54.545v-552.566zM867.979 28.854h-194.465v18.972c0 16.601-14.229 30.83-30.83 30.83h-279.84c-16.601 0-30.83-14.229-30.83-30.83v-18.972h-194.465c-18.972 0-35.573-16.601-35.573-35.573s16.601-35.573 35.573-35.573h730.431c18.972 0 35.573 16.601 35.573 35.573s-16.601 35.573-35.573 35.573zM476.677 666.795c9.486 7.115 9.486 18.972 0 26.087-28.458 18.972-87.747 54.545-158.892 54.545s-128.063-35.573-156.521-54.545c-9.486-7.115-9.486-18.972 0-26.087 28.458-18.972 87.747-54.545 158.892-54.545s128.063 35.573 156.521 54.545zM260.868 678.653c0 30.83 26.087 56.917 56.917 56.917s56.917-26.087 56.917-56.917c0-30.83-26.087-56.917-56.917-56.917s-56.917 26.087-56.917 56.917zM291.698 678.653c0-15.717 12.741-28.458 28.458-28.458s28.458 12.741 28.458 28.458v0c0 15.717-12.741 28.458-28.458 28.458s-28.458-12.741-28.458-28.458v0zM640.313 472.33c-59.288 0-106.719-47.431-106.719-106.719s47.431-106.719 106.719-106.719 106.719 47.431 106.719 106.719-49.802 106.719-106.719 106.719zM640.313 306.323c-33.201 0-59.288 26.087-59.288 59.288s26.087 59.288 59.288 59.288 59.288-26.087 59.288-59.288-28.458-59.288-59.288-59.288zM294.070 484.187h23.715l-42.688 75.889-45.059-75.889h28.458c11.858-123.319 118.576-220.552 244.267-220.552v35.573c-106.719 2.372-196.837 83.003-208.694 184.979zM502.764 756.913v-35.573c106.719 0 196.837-83.003 208.694-187.351h-23.715l45.059-75.889 45.059 75.889h-28.458c-14.229 128.063-120.948 222.924-246.639 222.924z" />
<glyph unicode="&#xe906;" glyph-name="epr" d="M181.812 311.977c-4.925 0-9.85 1.878-13.607 5.633-29.88 29.878-46.333 69.605-46.333 111.862 0 42.252 16.453 81.979 46.333 111.862 7.516 7.51 19.699 7.51 27.215 0 7.516-7.516 7.516-19.704 0-27.22-22.608-22.606-35.060-52.669-35.060-84.642 0-31.978 12.451-62.036 35.060-84.642 7.516-7.516 7.516-19.704 0-27.22-3.474-3.48-8.277-5.633-13.583-5.633-0.009 0-0.018 0-0.026 0h0.001zM126.16 254.487c-4.925 0-9.85 1.878-13.607 5.633-93.38 93.383-93.38 245.322 0 338.705 7.516 7.51 19.699 7.51 27.215 0 7.516-7.516 7.516-19.704 0-27.22-78.372-78.372-78.372-205.892 0-284.264 7.516-7.516 7.516-19.704 0-27.22-3.474-3.481-8.277-5.634-13.583-5.634-0.009 0-0.017 0-0.026 0h0.001zM766.682 151.499h-505.667c-10.629 0-19.246 8.614-19.246 19.243v628.055c0 10.629 8.616 19.243 19.246 19.243h505.667c10.629 0 19.246-8.614 19.246-19.243v-628.055c0-10.63-8.617-19.243-19.246-19.243zM280.26 189.985h467.176v589.569h-467.176v-589.569zM473.364 53.846c-0.003 0-0.006 0-0.009 0-8.018 0-14.891 4.906-17.78 11.88l-0.047 0.128-35.845 88.392c-3.994 9.85 0.753 21.073 10.603 25.067 9.855 3.989 21.073-0.758 25.067-10.597l28.419-70.082 189.351 82.642c9.741 4.27 21.086-0.191 25.337-9.94 4.251-9.738-0.199-21.083-9.94-25.332l-207.459-90.55c-2.266-1.016-4.911-1.608-7.695-1.608-0.001 0-0.002 0-0.003 0v0zM772.848 184.553c-7.42 0-14.491 4.312-17.649 11.547-4.251 9.744 0.199 21.089 9.94 25.337l149.441 65.234-157.042 387.237c-3.994 9.85 0.753 21.073 10.603 25.067 9.855 3.994 21.073-0.753 25.067-10.597l164.085-404.612c3.92-9.669-0.576-20.702-10.136-24.871l-166.621-72.729c-2.262-1.019-4.904-1.613-7.684-1.613-0.001 0-0.003 0-0.004 0v0zM513.847 710.692c-10.629 0-19.246 8.614-19.246 19.243s8.616 19.243 19.246 19.243c27.493 0 49.858 23.529 49.858 52.446 0 28.923-22.364 52.452-49.858 52.452-27.491 0-49.855-23.529-49.855-52.452 0-10.629-8.616-19.243-19.246-19.243s-19.246 8.614-19.246 19.243c0 50.144 39.632 90.938 88.347 90.938s88.349-40.793 88.349-90.938c0-50.139-39.634-90.932-88.349-90.932zM414.892 489.323h-71.427c-10.629 0-19.246 8.614-19.246 19.243v74.103c0 10.629 8.616 19.243 19.246 19.243h71.427c10.629 0 19.246-8.614 19.246-19.243v-74.103c0-10.63-8.616-19.243-19.246-19.243zM362.711 527.809h32.935v35.617h-32.935v-35.617zM414.892 319.509h-71.427c-10.629 0-19.246 8.614-19.246 19.243v74.097c0 10.629 8.616 19.243 19.246 19.243h71.427c10.629 0 19.246-8.614 19.246-19.243v-74.097c0-10.629-8.616-19.243-19.246-19.243zM362.711 357.995h32.935v35.611h-32.935v-35.611zM613.825 561.585h-106.985c-10.629 0-19.246 8.614-19.246 19.243s8.616 19.243 19.246 19.243h106.985c10.629 0 19.246-8.614 19.246-19.243s-8.616-19.243-19.246-19.243zM664.574 491.773h-157.734c-10.629 0-19.246 8.614-19.246 19.243s8.616 19.243 19.246 19.243h157.734c10.629 0 19.246-8.614 19.246-19.243s-8.616-19.243-19.246-19.243zM613.825 395.754h-106.985c-10.629 0-19.246 8.614-19.246 19.243s8.616 19.243 19.246 19.243h106.985c10.629 0 19.246-8.614 19.246-19.243s-8.616-19.243-19.246-19.243zM664.574 325.938h-157.734c-10.629 0-19.246 8.614-19.246 19.243s8.616 19.243 19.246 19.243h157.734c10.629 0 19.246-8.614 19.246-19.243s-8.616-19.243-19.246-19.243z" />
<glyph unicode="&#xe907;" glyph-name="eprAnswer" d="M888.948 387.266c14.302 6.568 20.534 23.484 13.967 37.785-6.567 14.302-23.483 20.646-37.785 13.968-8.515-3.895-208.459-98.441-208.459-331.829v-52.476c-92.486-37.116-195.88-37.116-288.423 0v52.476c0 233.387-199.943 327.934-208.458 331.829-14.329 6.623-31.134 0.334-37.729-13.912-6.593-14.245-0.39-31.162 13.857-37.784 7.18-3.342 175.348-83.976 175.348-280.134v-71.229c0-11.185 6.54-21.313 16.694-25.933 58.709-26.71 120.812-40.232 184.501-40.232 63.745 0 125.793 13.523 184.501 40.232 10.156 4.619 16.694 14.748 16.694 25.933v71.229c0 196.16 168.169 276.793 175.291 280.077zM94.572 466.788c15.748 0 28.492 12.743 28.492 28.492 0 214.69 174.679 389.369 389.397 389.369s389.397-174.679 389.397-389.369c0-15.749 12.743-28.492 28.492-28.492 15.72 0 28.492 12.743 28.492 28.492 0 246.131-200.249 446.353-446.38 446.353s-446.38-200.222-446.38-446.353c0-15.749 12.771-28.492 28.492-28.492zM923.783 325.997c-51.279-12.13-148.303-74.68-148.303-224.762v-58.654c0-15.748 12.772-28.491 28.492-28.491 15.75 0 28.493 12.743 28.493 28.491v58.654c0 141.013 99.972 168.168 104.619 169.337 15.192 3.674 24.595 18.975 20.979 34.222-3.616 15.306-18.865 24.711-34.28 21.203zM101.138 325.997c-15.359 3.508-30.661-5.898-34.28-21.202-3.616-15.304 5.872-30.661 21.174-34.279 1.058-0.222 104.424-26.323 104.424-169.281v-58.654c0-15.748 12.743-28.491 28.492-28.491 15.72 0 28.492 12.743 28.492 28.491v58.654c0 150.083-97.023 212.633-148.303 224.762zM512.461 130.73c59.488 0 107.706 61.656 107.706 137.784 0 76.127-48.218 137.783-107.706 137.783s-107.706-61.656-107.706-137.783c0-76.128 48.218-137.784 107.706-137.784zM282.941 535.848c5.565-5.565 12.855-8.348 20.144-8.348 7.291 0 14.581 2.783 20.146 8.348l37.618 37.618 37.619-37.618c5.564-5.565 12.854-8.348 20.145-8.348s14.579 2.783 20.144 8.348c11.129 11.129 11.129 29.16 0 40.29l-37.618 37.618 37.618 37.563c11.129 11.129 11.129 29.16 0 40.29s-29.16 11.129-40.289 0l-37.619-37.564-37.59 37.564c-11.129 11.129-29.16 11.129-40.29 0s-11.129-29.16 0-40.29l37.59-37.563-37.618-37.618c-11.129-11.131-11.129-29.16 0-40.29zM677.346 573.466l37.619-37.618c5.565-5.565 12.855-8.348 20.144-8.348s14.581 2.783 20.146 8.348c11.129 11.129 11.129 29.16 0 40.29l-37.619 37.618 37.59 37.563c11.129 11.129 11.129 29.16 0 40.29s-29.159 11.129-40.289 0l-37.59-37.564-37.59 37.564c-11.131 11.129-29.16 11.129-40.289 0s-11.129-29.16 0-40.29l37.589-37.563-37.619-37.618c-11.129-11.129-11.129-29.16 0-40.29 5.565-5.565 12.856-8.348 20.146-8.348s14.579 2.783 20.145 8.348l37.617 37.618z" />
<glyph unicode="&#xe908;" glyph-name="foundation" d="M977.314-24.951h-931.502c-14.252 0-25.451 11.198-25.451 25.451v626.091c0 14.252 11.198 25.451 25.451 25.451h931.502c14.252 0 25.451-11.198 25.451-25.451v-626.091c0-14.252-11.198-25.451-25.451-25.451zM71.262 25.951h880.6v575.19h-880.6v-575.19zM977.314 601.14h-931.502c-9.671 0-18.325 5.599-22.906 13.743-4.072 8.653-3.054 18.834 2.545 26.978l142.525 193.427c4.581 6.617 12.216 10.18 20.361 10.18h637.29c7.635 0 15.271-3.563 19.852-9.671l151.687-193.427c6.108-7.635 7.126-18.325 3.054-26.978s-13.234-14.252-22.906-14.252zM96.204 652.042h828.68l-111.984 142.525h-611.839l-104.858-142.525zM414.849 115.029c-79.916 0-144.561 64.645-144.561 144.561s64.645 144.561 144.561 144.561 144.561-64.645 144.561-144.561-64.645-144.561-144.561-144.561zM414.849 353.249c-51.411 0-93.659-42.248-93.659-93.659s42.248-93.659 93.659-93.659c51.411 0 93.659 42.248 93.659 93.659s-42.248 93.659-93.659 93.659zM412.304 372.083c-14.252 0-25.451 11.198-25.451 25.451v40.721c0 14.252 11.198 25.451 25.451 25.451s25.451-11.198 25.451-25.451v-40.721c0-14.252-11.198-25.451-25.451-25.451zM316.1 330.343c-6.108 0-12.725 2.545-17.307 7.126l-31.050 29.523c-10.18 9.671-10.689 25.96-1.018 36.14s25.96 10.689 36.14 1.018l31.050-29.523c10.18-9.671 10.689-25.96 1.018-36.14-5.599-5.599-12.216-8.144-18.834-8.144zM274.869 234.648h-40.721c-14.252 0-25.451 11.198-25.451 25.451s11.198 25.451 25.451 25.451h40.721c14.252 0 25.451-11.198 25.451-25.451s-11.198-25.451-25.451-25.451zM287.086 105.357c-6.617 0-13.234 2.545-17.816 7.635-10.18 10.18-10.18 25.96 0 36.14l31.050 31.050c10.18 10.18 25.96 10.18 36.14 0s10.18-25.96 0-36.14l-31.050-31.050c-5.090-5.090-11.707-7.635-18.325-7.635zM417.394 51.402c-14.252 0-25.451 11.198-25.451 25.451v45.812c0 14.252 11.198 25.451 25.451 25.451s25.451-11.198 25.451-25.451v-45.812c0-14.252-11.198-25.451-25.451-25.451zM541.595 106.375c-6.617 0-13.234 2.545-18.325 8.144l-29.523 31.050c-9.671 10.18-9.162 26.469 1.018 36.14s26.469 9.162 36.14-1.018l29.523-31.050c9.671-10.18 9.162-26.469-1.018-36.14-5.090-4.581-11.707-7.126-17.816-7.126zM595.55 234.648h-45.812c-14.252 0-25.451 11.198-25.451 25.451s11.198 25.451 25.451 25.451h45.812c14.252 0 25.451-11.198 25.451-25.451s-11.198-25.451-25.451-25.451zM510.545 331.87c-6.617 0-13.234 2.545-18.325 7.635-9.671 10.18-9.671 25.96 0.509 36.14l30.541 30.032c10.18 9.671 25.96 9.671 36.14-0.509 9.671-10.18 9.671-25.96-0.509-36.14l-30.541-30.032c-5.090-4.581-11.198-7.126-17.816-7.126zM717.715 324.744c-54.465 0-98.749 44.285-98.749 98.749s44.285 98.749 98.749 98.749 98.749-44.285 98.749-98.749-44.285-98.749-98.749-98.749zM717.715 471.341c-26.469 0-47.848-21.379-47.848-47.848s21.379-47.848 47.848-47.848 47.848 21.379 47.848 47.848-21.379 47.848-47.848 47.848zM717.715 484.066c-14.252 0-25.451 11.198-25.451 25.451v25.451c0 14.252 11.198 25.451 25.451 25.451s25.451-11.198 25.451-25.451v-25.451c0-14.252-11.198-25.451-25.451-25.451zM657.651 457.598c-6.617 0-12.725 2.545-17.816 7.126l-18.834 18.325c-10.18 9.671-10.18 25.96-0.509 36.14s25.96 10.18 36.14 0.509l18.834-18.325c10.18-9.671 10.18-25.96 0.509-36.14-5.090-5.090-11.707-7.635-18.325-7.635zM631.182 397.533h-25.451c-14.252 0-25.451 11.198-25.451 25.451s11.198 25.451 25.451 25.451h25.451c14.252 0 25.451-11.198 25.451-25.451s-11.198-25.451-25.451-25.451zM639.326 318.127c-6.617 0-12.725 2.545-17.816 7.126-10.18 9.671-10.18 25.96-0.509 36.14l19.343 19.852c9.671 10.18 25.96 10.18 36.14 0.509s10.18-25.96 0.509-36.14l-19.343-19.852c-5.090-5.090-11.707-7.635-18.325-7.635zM717.715 285.55c-14.252 0-25.451 11.198-25.451 25.451v25.451c0 14.252 11.198 25.451 25.451 25.451s25.451-11.198 25.451-25.451v-25.451c0-14.252-11.198-25.451-25.451-25.451zM797.63 319.145c-6.617 0-13.234 2.545-18.325 7.635l-18.834 19.343c-9.671 10.18-9.671 25.96 0.509 36.14 10.18 9.671 25.96 9.671 36.14-0.509l18.834-19.343c9.671-10.18 9.671-25.96-0.509-36.14-5.090-4.581-11.198-7.126-17.816-7.126zM829.698 397.533h-25.451c-14.252 0-25.451 11.198-25.451 25.451s11.198 25.451 25.451 25.451h25.451c14.252 0 25.451-11.198 25.451-25.451s-11.198-25.451-25.451-25.451zM778.288 457.598c-6.108 0-12.725 2.545-17.307 7.126-10.18 9.671-10.689 25.96-1.018 36.14l18.325 19.343c9.671 10.18 25.96 10.689 36.14 1.018s10.689-25.96 1.018-36.14l-18.325-19.343c-5.599-5.599-12.216-8.144-18.834-8.144z" />
<glyph unicode="&#xe909;" glyph-name="hierarchy" d="M994.478 331.205l-18.513 1.712c-5.426 21.622-13.614 40.631-24.34 57.899l0.496-0.857 10.54 12.988c9.384 11.516 9.925 26.741 1.216 35.45l-34.489 34.489c-8.483 8.453-23.258 8.123-34.669-0.661l-15.976-10.345c-10.405 7.207-17.898 12.282-34.159 16.486v275.792c0 41.906-35.18 86.906-74.954 86.906h-285.807c-22.838 25.405-60.795 32.792-91.636 15.21l-349.38-199.712c-22.499-13.067-37.386-37.051-37.386-64.512 0-13.545 3.622-26.243 9.95-37.181l-0.191 0.358 269.201-470.97c9.77-16.914 25.598-29.406 44.451-34.607l0.519-0.122c6.546-1.772 13.183-2.658 19.775-2.658 12.718 0 25.24 3.303 36.501 9.73l165.629 93.377-0.24 0.42h30.285c1.396-1.712 3.003-3.213 4.925-4.174 0.315-0.15 0.646-0.27 0.976-0.405l29.069-39.384c0.45-0.601 0.946-1.066 1.471-1.607 11.156-11.216 25.39-12.973 34.549-5.42l18.183 13.108c15.042-9.426 32.41-17.217 50.847-22.473l1.435-0.35 2.297-19.985c4.384-42.822 18.769-39.429 24.189-39.429h48.723c4.925 0 19.925-3.408 24.114 37.942l1.802 8.619c20.12 5.42 38.768 15.33 55.24 25.48l14.805-10.751c10.961-8.994 26.546-9.084 35.525-0.135l34.474 34.909c8.739 8.769 8.318 24.099-1.051 35.585l-11.231 14.159c10.886 17.492 19.429 36.291 24.579 56.155l18.183 1.802c13.799 1.381 30.345 10.345 30.345 24.219v48.723c0.015 13.889-16.531 22.823-30.27 24.219zM487.201 837.491c-0.435 0.556-0.976 0.976-1.426 1.516 1.366-0.45 2.117-0.961 1.426-1.516zM407.488 829.503c6.182 3.584 13.602 5.699 21.516 5.699 10.1 0 19.396-3.445 26.776-9.224l-0.095 0.072h-54.249l6.051 3.453zM370.401 83.401c-6.145-3.588-13.527-5.706-21.405-5.706-4.107 0-8.079 0.576-11.841 1.651l0.303-0.074c-11.327 3.098-20.586 10.391-26.195 20.063l-0.111 0.207-269.216 470.985c-3.583 6.154-5.697 13.545-5.697 21.43 0 4.103 0.573 8.072 1.642 11.832l-0.074-0.304c3.097 11.331 10.397 20.593 20.078 26.195l0.207 0.111 247.369 141.395c-0.808-4.599-1.317-9.951-1.41-15.404l-0.001-0.091v-133.167c-1.137 0.705-2.515 1.123-3.992 1.123-1.35 0-2.618-0.349-3.72-0.963l0.039 0.020-158.151-90.419c-2.344-1.354-3.895-3.848-3.895-6.704 0-4.262 3.455-7.717 7.717-7.717 1.406 0 2.723 0.376 3.858 1.032l-0.037-0.020 158.181 90.419v-139.773c-1.399 1.886-3.618 3.096-6.12 3.096-1.371 0-2.657-0.363-3.767-0.998l0.037 0.020-91.44-52.282c-2.532-1.301-4.234-3.895-4.234-6.887 0-4.262 3.455-7.718 7.718-7.718 1.55 0 2.994 0.457 4.204 1.244l-0.030-0.018 91.44 52.282c0.867 0.511 1.599 1.152 2.195 1.906l0.012 0.016v-119.173c-0.075 0.165-0.075 0.36-0.18 0.526-1.369 2.329-3.862 3.868-6.715 3.868-1.4 0-2.714-0.371-3.849-1.020l0.038 0.020-36.006-20.57c-2.342-1.356-3.892-3.849-3.892-6.704 0-4.264 3.457-7.72 7.72-7.72 1.409 0 2.729 0.377 3.866 1.036l-0.037-0.020 36.006 20.57c1.36 0.826 2.416 2.036 3.030 3.48l0.018 0.049v-107.056c0-40.3 28.408-62.116 61.381-62.116h150.419l-145.464-81.951zM605.083 177.153c-2.372 0.811-4.88 1.261-7.492 0.811l-0.105-0.015c-2.277 1.486-5.050 2.395-8.030 2.462h-224.024c-35.285 0-46.366 35.39-46.366 47.102v528.177c0 9.88 0.931 17.958 2.432 24.669l53.663 30.675h394.455c22.883 0 44.924-32.012 44.924-56.876v-253.285l-0.465 0.631c-2.117 3.138-3.288 4.309-11.742 4.309l-50.81-0.24c-4.084 0-6.306 0.015-10.465-2.583-2.823-1.772-4.489-6.321-4.91-10.585l-2.703-26.396-4.114-0.841c-20.375-4.114-39.729-8.018-57.597-18.754l-21.576 20.51c-9.715 7.913-19.669 9.339-25.33 3.679l-35.060-34.204c-3.889-3.889-4.58-9.76-2.823-15.751h-182.475c-0.054 0.001-0.117 0.002-0.18 0.002-4.15 0-7.515-3.361-7.522-7.509v-0.001c0-4.264 3.438-7.507 7.703-7.507h184.968c0.005 0 0.012 0 0.018 0 2.047 0 3.91 0.788 5.303 2.077l-0.005-0.005 14.85-18.048c-10.872-17.45-19.315-37.737-24.195-59.374l-0.25-1.316-32.898-3.018c-4.895-0.495-16.411-3.423-20.991-10.405h-126.815c-0.054 0.001-0.117 0.002-0.18 0.002-4.15 0-7.515-3.361-7.522-7.509v-0.001c0-4.264 3.438-7.507 7.703-7.507h124.803v-40.69c0-11.667 16.862-16.051 23.018-16.681l30.795-3.078c4.775-19.85 13.408-39.759 25.69-59.339l-3.679-3.589zM994.733 264.84c0-0.045-2.793-0.090-3.048-0.12l-30.525-2.943c-6.758-0.712-12.17-5.711-13.496-12.198l-0.017-0.099c-5.071-24.879-14.876-46.857-28.492-65.926l0.354 0.521c-3.979-5.631-3.724-13.198 0.601-18.543l17.477-21.847-26.261-26.591-22.522 16.501c-2.536 1.912-5.741 3.063-9.214 3.063-3.054 0-5.901-0.89-8.295-2.424l0.061 0.037c-18.784-12.147-41.051-24.729-63.858-28.798-6.516-1.156-11.561-5.601-12.537-12.147l-3.438-21.666c-0.375-3.754-1.532-11.366-2.688-11.366h-30.285c-1.201 0-2.417 8.183-2.823 12.207l-3.453 29.474c-0.733 6.679-5.642 12.031-12.030 13.42l-0.102 0.019c-19.835 4.204-40.48 13.483-61.336 27.582-2.417 1.67-5.411 2.668-8.637 2.668-3.3 0-6.357-1.044-8.858-2.82l0.047 0.032-22.252-15.555-23.768 32.237c0.39 1.877 0.45 3.889 0.105 5.886 0 0.060-0.060 0.12-0.060 0.18l8.739 8.483c1.449 1.405 2.349 3.369 2.349 5.544 0 1.587-0.479 3.062-1.3 4.289l0.018-0.028c-14.279 21.471-23.693 43.288-28.078 64.834-0.628 3.283-3.31 5.786-6.634 6.138l-0.033 0.003-36.801 3.619c-3.649 0.375-9.324 2.012-9.324 3.258v38.768h45.15c0.054-0.001 0.117-0.002 0.18-0.002 4.15 0 7.515 3.361 7.522 7.509v0.001c-0.006 2.881-1.676 5.37-4.101 6.557l-0.043 0.019c2.891 0.636 5.13 2.865 5.771 5.7l0.010 0.050c4.474 23.408 13.423 45.495 26.591 65.66 0.784 1.188 1.25 2.645 1.25 4.211 0 1.861-0.659 3.569-1.756 4.902l0.011-0.013-21.351 26.096c-1.952 2.402-2.132 4.82-2.958 4.234l33.888 33.048c1.216-0.36 3.348-1.291 5.525-3.048l25.54-24.219c1.371-1.258 3.206-2.029 5.222-2.029 1.679 0 3.233 0.535 4.501 1.444l-0.023-0.016c16.727 11.561 35.48 15.66 57.207 20.045l9.715 2.613c3.288 0.691 5.751 4.655 6.081 7.988l2.793 29.639c0.571-0.075 1.441 3.393 2.072 3.393l50.029 0.090c0.751 0 0.706-3.544 1.411-3.423l2.372-17.447c0.601-3.168 3.108-5.631 6.276-6.171l2.057-0.39c0.811-3.695 2.912-6.8 5.798-8.889l0.043-0.030c2.027-4.024 5.586-7.222 10.33-8.228 15.39-3.303 19.429-6.096 30.255-13.588 3.018-2.087 6.396-4.444 10.45-7.087 6.231-4.069 14.549-3.123 19.669 2.327l5.105 5.405 15.15 9.805 25.675-25.63-16.441-20.36c-2.106-2.607-3.38-5.961-3.38-9.613 0-3.318 1.052-6.391 2.841-8.902l-0.032 0.047c13.301-18.814 23.075-41.111 27.823-65.213l0.179-1.093c1.246-6.697 7.342-11.787 14.114-12.492l28.934-2.883c0.24-0.030 2.988-0.060 2.988-0.105v-35.6zM776.642 428.336c-80.119 0-145.299-65.179-145.299-145.299 0-80.104 65.179-145.284 145.299-145.284 80.104 0 145.284 65.179 145.284 145.284 0 80.119-65.179 145.299-145.284 145.299zM776.642 153.16c-71.621 0-129.893 58.273-129.893 129.878 0 71.621 58.273 129.893 129.893 129.893 71.606 0 129.863-58.273 129.863-129.893s-58.258-129.878-129.863-129.878zM776.642 336.656c-29.579 0-53.633-24.054-53.633-53.633s24.054-53.633 53.633-53.633 53.633 24.054 53.633 53.633-24.069 53.633-53.633 53.633zM776.642 260.23c-12.567 0-22.808 10.24-22.808 22.808s10.24 22.808 22.808 22.808c12.567 0 22.808-10.24 22.808-22.808s-10.24-22.808-22.808-22.808zM404.47 660.886h354.53c0.049-0.001 0.107-0.002 0.165-0.002 4.153 0 7.521 3.359 7.537 7.508v0.002c0 4.264-3.453 7.507-7.703 7.507h-354.53c-0.054 0.001-0.117 0.002-0.18 0.002-4.15 0-7.515-3.361-7.522-7.509v-0.001c0-4.264 3.438-7.507 7.703-7.507zM404.47 525.753h262.039c0.054-0.001 0.117-0.002 0.18-0.002 4.15 0 7.515 3.361 7.522 7.509v0.001c0 4.264-3.438 7.507-7.703 7.507h-262.039c-0.054 0.001-0.117 0.002-0.18 0.002-4.15 0-7.515-3.361-7.522-7.509v-0.001c0-4.264 3.438-7.507 7.703-7.507z" />
<glyph unicode="&#xe90a;" glyph-name="monitor" d="M602.703 666.211h231.565c12.688 0 25.377 12.688 25.377 25.377 0 15.861-12.688 25.377-25.377 25.377h-231.565c-12.688 0-25.377-12.688-25.377-25.377-3.172-12.688 9.516-25.377 25.377-25.377zM910.398 593.252h-212.532c-12.688 0-25.377-12.688-25.377-25.377 0-15.861 12.688-25.377 25.377-25.377h212.532c12.688 0 25.377 12.688 25.377 25.377s-12.688 25.377-25.377 25.377zM621.736 593.252h-19.033c-12.688 0-25.377-12.688-25.377-25.377 0-15.861 12.688-25.377 25.377-25.377h19.033c12.688 0 25.377 12.688 25.377 25.377s-12.688 25.377-25.377 25.377zM910.398 504.433h-212.532c-12.688 0-25.377-12.688-25.377-25.377 0-15.861 12.688-25.377 25.377-25.377h212.532c12.688 0 25.377 12.688 25.377 25.377s-12.688 25.377-25.377 25.377zM621.736 504.433h-19.033c-12.688 0-25.377-12.688-25.377-25.377 0-15.861 12.688-25.377 25.377-25.377h19.033c12.688 0 25.377 12.688 25.377 25.377s-12.688 25.377-25.377 25.377zM910.398 415.613h-212.532c-12.688 0-25.377-12.688-25.377-25.377 0-15.861 12.688-25.377 25.377-25.377h212.532c12.688 0 25.377 12.688 25.377 25.377s-12.688 25.377-25.377 25.377zM621.736 415.613h-19.033c-12.688 0-25.377-12.688-25.377-25.377 0-15.861 12.688-25.377 25.377-25.377h19.033c12.688 0 25.377 12.688 25.377 25.377s-12.688 25.377-25.377 25.377zM386.999 539.326h-69.787v95.164c0 12.688-9.516 22.205-22.205 22.205s-22.205-9.516-22.205-22.205v-123.713l3.172-3.172v-3.172c3.172-6.344 9.516-9.516 19.033-9.516h91.991c12.688 0 22.205 9.516 22.205 22.205s-9.516 22.205-22.205 22.205zM295.007 732.825c-50.754 0-98.336-22.205-136.401-57.098-38.065-38.065-57.098-85.647-57.098-136.401s19.033-101.508 57.098-136.401c38.065-38.065 85.647-57.098 136.401-57.098s101.508 19.033 136.401 57.098c38.065 38.065 57.098 85.647 57.098 136.401s-19.033 101.508-57.098 136.401c-34.893 34.893-85.647 57.098-136.401 57.098zM295.007 390.236c-41.238 0-76.131 15.861-104.68 44.41s-44.41 66.615-44.41 104.68c0 41.238 15.861 76.131 44.41 104.68s66.615 44.41 104.68 44.41c41.238 0 76.131-15.861 104.68-44.41s44.41-66.615 44.41-104.68c0-41.238-15.861-76.131-44.41-104.68-25.377-28.549-63.442-44.41-104.68-44.41zM1018.251 831.161c0 31.721-12.688 60.27-53.926 63.442-19.033 3.172-38.065 3.172-57.098 3.172h-745.448c-38.065 0-76.131 0-114.196-3.172-25.377-3.172-41.238-25.377-44.41-50.754 0-19.033-3.172-34.893-3.172-53.926v-599.531c0-28.549 19.033-44.41 44.41-50.754 19.033-3.172 34.893-3.172 53.926-3.172h320.384v-53.926c0-15.861 0-22.205-12.688-25.377h-136.401c-6.344 0-9.516-9.516-9.516-19.033v-22.205c0-9.516 3.172-19.033 9.516-19.033h478.99c6.344 0 9.516 9.516 9.516 19.033v22.205c0 9.516-3.172 19.033-9.516 19.033h-136.401c-15.861 0-12.688 3.172-12.688 28.549v50.754h361.622c9.516 0 22.205 3.172 31.721 9.516 25.377 12.688 31.721 34.893 31.721 60.27v279.147c-6.344 111.024-6.344 228.393-6.344 345.761zM482.162 209.425c0 15.861 12.688 25.377 25.377 25.377s25.377-12.688 25.377-25.377c0-15.861-12.688-25.377-25.377-25.377-12.688-3.172-25.377 9.516-25.377 25.377zM957.98 602.768v-317.212c0-15.861-9.516-22.205-25.377-25.377h-837.44c-28.549 0-38.065 6.344-38.065 34.893v485.334c0 25.377 6.344 31.721 31.721 31.721h837.44c19.033 0 25.377-6.344 25.377-25.377v-91.991c6.344-28.549 6.344-60.27 6.344-91.991z" />
<glyph unicode="&#xe90b;" glyph-name="plume" d="M670 448c0 87.1-70.9 158-158 158s-158-70.9-158-158c0-76.9 55.2-141.1 128-155.1v-228.9c0-16.6 13.4-30 30-30s30 13.4 30 30v228.9c72.8 14 128 78.2 128 155.1zM512 350c-54.1 0-98 43.9-98 98s43.9 98 98 98c54.1-0.1 97.9-43.9 98-98 0-54.1-43.9-98-98-98zM688.4 673.2c-19.6 15.4-48.4 1.3-48.4-23.7 0-9.2 4.2-17.9 11.5-23.6 7.1-5.6 13.9-11.7 20.4-18.1 88.3-88.3 88.3-231.4 0-319.6-6.4-6.4-13.2-12.5-20.4-18.1-7.2-5.7-11.4-14.4-11.5-23.6 0-25 28.9-39.1 48.5-23.6 9 7.1 17.6 14.7 25.7 22.8 110.8 110.8 111.8 290 2.3 402.1-8.8 9.1-18.2 17.5-28.1 25.4zM374.2 268.8c-7.7 6-15.1 12.5-22 19.4-88.3 88.3-88.3 231.4 0 319.6 6.9 6.9 14.3 13.4 22 19.4 7.4 5.7 11.7 14.4 11.8 23.7v0.5c0 24.7-28.3 38.7-47.9 23.6-11.8-9.1-22.8-19-33.1-29.8-107.1-112.4-105-289.8 4.8-399.5 8.8-8.9 18.2-17.1 28.1-24.8 19.6-15.1 48.1-1.3 48.1 23.5v0.6c0 9.4-4.4 18.2-11.8 23.8zM370.4 123.4c-179.3 78.5-261 287.6-182.4 466.9 35.7 81.5 100.8 146.6 182.4 182.4 8.9 3.9 14.6 12.7 14.6 22.4v12c0 13.5-10.9 24.4-24.4 24.5-3.2 0-6.4-0.6-9.4-1.9l-0.3-0.1c-210.7-89.2-309.2-332.3-220-542.9 42-99.1 120.9-178 220-220l0.3-0.2c12.4-5.2 26.7 0.7 31.9 13.1 1.3 3 1.9 6.2 1.9 9.5v12c0 9.6-5.8 18.4-14.6 22.3zM893.5 609.2c-43.001 99.55-120.75 177.299-217.608 219.262l-2.692 1.038-0.3 0.1c-12.4 5.2-26.7-0.7-31.9-13.1-1.3-3-1.9-6.2-1.9-9.5v-12c0-9.7 5.8-18.5 14.7-22.4 179.3-78.5 261-287.6 182.4-466.8-35.7-81.5-100.8-146.6-182.3-182.4-9-3.9-14.8-12.8-14.8-22.6v-11.8c0-13.5 10.9-24.4 24.4-24.5 3.2 0 6.4 0.6 9.4 1.9l0.3 0.2c210.5 89.1 309 331.9 220.3 542.6z" />
<glyph unicode="&#xe90c;" glyph-name="preposition" d="M898.5 892.457h-773c-32.026 0-57.975-25.948-57.975-57.954v-541.096c0-32.006 25.949-57.972 57.975-57.972h773c32.026 0 57.975 25.966 57.975 57.972v541.096c0 32.006-25.95 57.954-57.975 57.954zM898.48 312.769c0-10.681-8.643-19.325-19.325-19.325h-734.331c-10.682 0-19.325 8.643-19.325 19.325v502.428c0 10.681 8.643 19.324 19.325 19.324h734.331c10.682 0 19.325-8.643 19.325-19.324v-502.428zM666.599 138.812c0 10.681-8.663 19.325-19.325 19.325h-270.55c-10.662 0-19.325-8.643-19.325-19.325v-77.296h-193.25v-57.972h695.68v57.972h-193.231v77.296zM743.164 391.103l-123.914 130.495-9.010 11.508-11.014-11.508-74.941-78.939-131.557 138.572-8.989 9.862-11.035-9.862-169.905-178.937 20.023-21.080 159.884 168.389 131.576-138.572 10.679-13.684 9.345 13.684 74.941 78.92 131.575-138.572 18.826-17.477 4.916 24.403 56.635 238.59-27.479 7.247-50.555-213.039zM463.214 651.622c0 0 56.465-123.399 56.465-152.273 0 0 26.836 100.961 49.784 144.101 9.644 12.059 15.683 27.419 15.683 44.424 0 38.271-29.479 69.314-65.826 69.314-36.367 0-65.826-31.043-65.826-69.314 0-13.343 3.756-25.666 9.946-36.252h-0.226z" />
<glyph unicode="&#xe90d;" glyph-name="prognosis" d="M651 133.7h-417.3c-29 0-52.6 21.9-52.6 48.8v521.5c0 26.9 23.6 48.8 52.6 48.8h417.3c29 0 52.6-21.9 52.6-48.8v-75c0-11-8.9-19.9-19.9-19.9s-19.9 8.9-19.9 19.9v75c0 4.3-5.3 9.1-12.8 9.1h-417.3c-7.6 0-12.9-4.8-12.9-9.1v-521.4c0-4.3 5.3-9.1 12.9-9.1h417.3c7.6 0 12.8 4.8 12.8 9.1v30.8c0 11 8.9 19.9 19.9 19.9s19.9-8.9 19.9-19.9v-30.8c0-27-23.6-48.9-52.6-48.9zM581.5 557h-278.3c-11 0-19.9 9-19.9 20s8.9 20 19.9 20h278.2c11 0 19.9-9 19.9-20s-8.9-20-19.8-20zM482.1 418h-178.9c-11 0-19.9 9-19.9 20s8.9 20 19.9 20h178.9c11 0 19.9-9 19.9-20s-8.9-20-19.9-20zM482.1 279h-178.9c-11 0-19.9 8.5-19.9 19.5s8.9 19.5 19.9 19.5h178.9c11 0 19.9-8.5 19.9-19.5s-8.9-19.5-19.9-19.5zM807 278.7h-212.7c-11.2 0-21.4 5.9-27.5 15.7-6.5 10.6-7 24-1.4 35.1l106.4 209.3c5.7 11.2 16.7 18.2 28.9 18.2 12.1 0 23.2-7 28.9-18.2l106.4-209.3c5.6-11.1 5.1-24.5-1.4-35.1-6.1-9.8-16.4-15.7-27.6-15.7zM604.4 318.5h192.5l-96.2 189.4-96.3-189.4zM701 378.1c-11 0-20 8.9-20 19.9v39.7c0 11 9 19.9 20 19.9s20-8.9 20-19.9v-39.7c0-11-9-19.9-20-19.9zM700.7 328.8c-11.2 0-20.2 9.1-20.2 20.3s9.1 20.2 20.2 20.2c11.2 0 20.3-9.1 20.3-20.2-0.1-11.2-9.1-20.3-20.3-20.3z" />
<glyph unicode="&#xe90e;" glyph-name="quota" d="M673.494 133.335c0 10.853-8.799 19.629-19.633 19.629h-274.817c-10.846 0-19.627-8.778-19.627-19.629v-78.509h-196.299v-58.887h706.675v58.887h-196.3v78.509zM909.050 898.836h-785.192c-32.53 0-58.889-26.334-58.889-58.887v-549.588c0-32.507 26.36-58.881 58.889-58.881h785.192c32.513 0 58.894 26.374 58.894 58.881v549.588c-0.001 32.552-26.38 58.887-58.894 58.887v0zM909.050 310.029c0-10.847-8.794-19.626-19.627-19.626h-745.93c-10.853 0-19.633 8.781-19.633 19.626v510.332c0 10.847 8.781 19.626 19.633 19.626h745.93c10.834 0 19.633-8.781 19.633-19.626v-510.332h-0.004zM693.121 368.874h98.149v255.166h-98.149v-255.166zM536.082 368.874h98.149v333.681h-98.149v-333.681zM241.634 368.874h98.149v98.139h-98.149v-98.139zM379.044 368.874h98.151v176.674h-98.151v-176.674z" />
<glyph unicode="&#xe90f;" glyph-name="record" d="M1010.923 13.009h-998.126c-7.064 0-12.796 5.733-12.796 12.796v25.593c0 7.064 5.733 12.796 12.796 12.796h89.575v460.699c0 28.255 22.906 51.186 51.186 51.186h204.744v102.346c0 28.28 22.906 51.186 51.186 51.186h204.744v102.398c0 28.255 22.906 51.186 51.186 51.186h204.744c28.255 0 51.186-22.931 51.186-51.186v-767.815h89.575c7.064 0 12.796-5.733 12.796-12.796v-25.593c0-7.064-5.733-12.796-12.796-12.796zM358.302 524.894h-204.744v-460.699h204.744v460.699zM614.232 678.452h-204.744v-614.257h204.744v614.257zM870.161 831.984h-204.744v-767.79h204.744v767.79z" />
<glyph unicode="&#xe910;" glyph-name="repair" d="M644.864 434.176c26.688-11.072 55.808-17.344 86.464-17.344 126.080 0 228.224 104.064 228.224 232.512 0 13.376-1.344 26.432-3.456 39.168l-161.92-176.512-152.896 28.288-52.352 148.992 174.4 190.080c-9.538 1.521-20.612 2.447-31.882 2.559l-0.118 0.001c-126.080 0-228.288-104.128-228.288-232.512 0-33.024 6.848-64.384 19.008-92.8-70.464-126.4-176.064-232-217.6-271.040-12.079 3.897-25.975 6.144-40.397 6.144-0.086 0-0.171 0-0.257 0h0.013c-77.824 0-140.928-64.256-140.928-143.552 0-79.232 63.104-143.488 140.928-143.488s140.928 64.256 140.928 143.488c0 19.2-3.776 37.376-10.432 54.080 69.726 91.389 152.654 168.39 246.779 229.629l3.781 2.307zM263.872 71.744c-41.477 0.397-74.947 34.112-74.947 75.645 0 0.226 0.001 0.452 0.003 0.678v-0.035c0 42.176 33.536 76.352 74.944 76.352 41.344 0 74.944-34.176 74.944-76.352 0.001-0.172 0.002-0.376 0.002-0.58 0-41.545-33.462-75.275-74.905-75.708h-0.041zM277.312 614.4l133.568-139.52 64 65.28-133.504 139.456 32 32.64-179.264 182.528-128-130.432 179.2-182.592 32 32.64zM692.864 403.648s-109.888-30.464-185.344-164.096c-3.008 7.68 202.176-210.56 202.176-210.56 16.249-16.686 38.932-27.036 64.032-27.036s47.783 10.351 64.013 27.017l0.019 0.020 51.2 52.096c16.404 16.82 26.523 39.836 26.523 65.216s-10.119 48.396-26.542 65.235l0.019-0.019-196.096 192.128zM781.248 64.896c-4.067-4.206-9.761-6.817-16.064-6.817s-11.997 2.611-16.058 6.811l-0.006 0.006-164.608 167.68c-8.896 9.024-8.896 23.68 0 32.768s23.296 9.088 32.192 0l164.544-167.616c8.96-9.088 8.96-23.808 0-32.832zM853.696 138.688c-4.067-4.206-9.761-6.817-16.064-6.817s-11.997 2.611-16.058 6.811l-0.006 0.006-164.608 167.616c-8.896 9.088-8.896 23.68 0 32.768s23.232 9.088 32.192 0l164.544-167.616c4.133-4.22 6.683-10.004 6.683-16.384s-2.55-12.164-6.687-16.388l0.004 0.004z" />
<glyph unicode="&#xe911;" glyph-name="report" d="M382.567 674.81h258.864c44.096 0 80.029 35.866 80.029 79.939v4.294c0 2.722-0.135 5.442-0.428 8.096-3.709 36.787-32.494 66.221-68.897 71.125-3.485 0.471-7.038 0.833-10.705 0.833h-34.695v6.407c0 44.097-35.867 80.030-80.030 80.030h-29.457c-44.118 0-80.007-35.933-80.007-80.030v-6.407h-34.718c-3.619 0-7.152-0.362-10.682-0.833-36.384-4.903-65.188-34.291-68.876-71.079-0.27-2.677-0.428-5.375-0.428-8.096v-4.294c0-44.119 35.935-79.985 80.030-79.985zM852.736 859.355h-117.85v-42.161h117.85c8.004 0 14.505-6.498 14.505-14.505v-778.704c0-8.005-6.5-14.505-14.505-14.505h-681.474c-8.004 0-14.505 6.499-14.505 14.549v778.704c0 7.983 6.499 14.482 14.505 14.482h117.807v42.185h-117.807c-31.254 0-56.642-25.433-56.642-56.621v-778.66c0-31.254 25.387-56.666 56.642-56.666h681.474c31.258 0 56.644 25.388 56.644 56.621v778.659c-0.001 31.234-25.387 56.621-56.644 56.621zM320.077 495.75h383.845c23.723 0 42.948 19.247 42.948 42.972 0 23.723-19.225 42.95-42.948 42.95h-383.845c-23.723 0-42.97-19.228-42.97-42.95 0-23.724 19.248-42.972 42.97-42.972zM703.921 403.579h-383.845c-23.723 0-42.97-19.227-42.97-42.948 0-23.724 19.248-42.972 42.97-42.972h383.845c23.723 0 42.948 19.248 42.948 42.972 0 23.721-19.227 42.948-42.948 42.948zM703.921 225.485h-383.845c-23.723 0-42.97-19.223-42.97-42.948 0-23.747 19.248-42.974 42.97-42.974h383.845c23.723 0 42.948 19.25 42.948 42.974s-19.227 42.948-42.948 42.948z" />
<glyph unicode="&#xe912;" glyph-name="settings" d="M887.808 904.704h-751.616c-47.104 0-84.992-38.912-84.992-84.992v-750.592c0-47.104 37.888-84.992 84.992-84.992h750.592c47.104 0 84.992 38.912 84.992 84.992v754.688c-3.072 47.104-37.888 80.896-83.968 80.896zM94.208 823.808c0 21.504 17.408 43.008 43.008 43.008h102.4c-8.192-76.8-68.608-136.192-145.408-145.408v102.4zM94.208 678.4c98.304 8.192 175.104 89.088 187.392 187.392h208.896v-33.792l-43.008-8.192c-13.312-4.096-25.6-17.408-29.696-29.696-8.192-29.696-21.504-59.392-33.792-84.992-8.192-13.312-8.192-29.696 0-43.008l21.504-38.912-72.704-72.704-38.912 21.504c-8.192 4.096-13.312 8.192-21.504 8.192s-13.312 0-21.504-4.096c-25.6-17.408-55.296-25.6-84.992-33.792-13.312-4.096-25.6-17.408-29.696-29.696l-13.312-43.008h-28.672v204.8zM780.288 30.208h-144.384c-25.6 33.792-43.008 76.8-43.008 123.904 0 29.696 4.096 55.296 17.408 80.896l110.592-59.392c0-8.192-4.096-12.288-4.096-21.504 0-38.912 25.6-72.704 64.512-80.896v-43.008zM763.904 158.208c0 21.504 17.408 43.008 43.008 43.008 21.504 0 43.008-17.408 43.008-43.008 0-21.504-17.408-43.008-43.008-43.008-26.624 0-43.008 17.408-43.008 43.008zM929.792 72.192c0-21.504-17.408-43.008-43.008-43.008h-63.488v43.008c33.792 8.192 63.488 43.008 63.488 80.896 0 8.192 0 12.288-4.096 21.504l43.008 25.6v-128h4.096zM929.792 251.392l-64.512-33.792c-17.408 17.408-38.912 25.6-59.392 25.6-21.504 0-47.104-8.192-59.392-25.6l-115.712 59.392c38.912 55.296 98.304 90.112 171.008 90.112 47.104 0 90.112-17.408 123.904-43.008v-72.704h4.096zM929.792 371.2c-38.912 21.504-80.896 33.792-123.904 33.792-136.192 0-251.904-110.592-251.904-251.904 0-47.104 13.312-90.112 33.792-123.904h-182.272l-17.408 68.608 37.888 21.504c13.312 8.192 21.504 21.504 21.504 38.912 0 29.696 4.096 64.512 13.312 94.208 4.096 12.288 0 29.696-13.312 43.008l-29.696 25.6 51.2 90.112 43.008-14.336c13.312-4.096 29.696 0 43.008 8.192 21.504 21.504 47.104 43.008 72.704 55.296 13.312 8.192 21.504 21.504 21.504 37.888v43.008l98.304 25.6 21.504-33.792c4.096-8.192 8.192-13.312 17.408-17.408 4.096-4.096 12.288-4.096 21.504-4.096 29.696 0 64.512-4.096 90.112-13.312 12.288-4.096 21.504 0 33.792 4.096v-131.072zM929.792 562.688l-21.504-21.504c-33.792 8.192-68.608 13.312-102.4 13.312l-21.504 38.912c-4.096 8.192-8.192 13.312-17.408 17.408-4.096 4.096-13.312 4.096-21.504 4.096l-119.808-29.696c-17.408-4.096-21.504-21.504-21.504-37.888v-48.128c-29.696-17.408-55.296-37.888-80.896-64.512l-40.96 13.312c-13.312 4.096-33.792 4.096-43.008-13.312l-59.392-106.496c-8.192-13.312 0-29.696 13.312-43.008l33.792-29.696c-8.192-33.792-13.312-68.608-13.312-102.4l-37.888-21.504c-13.312-8.192-25.6-21.504-21.504-38.912l17.408-64.512h-235.52c-21.504 0-43.008 17.408-43.008 43.008v355.328h37.888c17.408 0 25.6 17.408 29.696 29.696l13.312 43.008c33.792 8.192 64.512 21.504 94.208 38.912l38.912-25.6c8.192-4.096 17.408-8.192 25.6-8.192s13.312 0 17.408 8.192l84.992 84.992c13.312 13.312 8.192 29.696 0 43.008l-17.408 47.104c17.408 29.696 29.696 59.392 38.912 94.208l43.008 13.312c17.408 4.096 29.696 12.288 29.696 29.696v40.96h354.304c21.504 0 43.008-17.408 43.008-43.008v-260.096h3.072z" />
<glyph unicode="&#xe913;" glyph-name="start" d="M511.043 844.692l121.498-274.324 298.322-31.959-223.36-200.325 61.788-293.586-259.528 150.528-260.132-149.504 62.956 293.361-222.556 201.196 298.429 30.776 122.583 273.838z" />
<glyph unicode="&#xe914;" glyph-name="supervise" d="M309.527 254.836l-114.036-121.018-65.164 69.818c-9.309 9.309-23.273 9.309-32.582 0s-9.309-25.6 0-34.909l81.455-86.109c6.982-4.655 11.636-6.982 18.618-6.982s11.636 2.327 16.291 6.982l130.327 137.309c9.309 9.309 9.309 25.6 0 34.909-11.636 9.309-25.6 9.309-34.909 0zM209.455 331.636c65.164 0 116.364 51.2 116.364 116.364s-51.2 116.364-116.364 116.364-116.364-51.2-116.364-116.364 51.2-116.364 116.364-116.364zM209.455 517.818c39.564 0 69.818-30.255 69.818-69.818s-30.255-69.818-69.818-69.818-69.818 30.255-69.818 69.818 30.255 69.818 69.818 69.818zM309.527 813.382l-114.036-121.018-65.164 69.818c-9.309 9.309-23.273 9.309-32.582 0s-9.309-25.6 0-34.909l81.455-86.109c6.982-4.655 11.636-6.982 18.618-6.982s11.636 2.327 16.291 6.982l130.327 137.309c9.309 9.309 9.309 25.6 0 34.909-11.636 9.309-25.6 9.309-34.909 0zM907.636 471.273h-372.364c-13.964 0-23.273-9.309-23.273-23.273s9.309-23.273 23.273-23.273h372.364c13.964 0 23.273 9.309 23.273 23.273s-9.309 23.273-23.273 23.273zM907.636 192h-372.364c-13.964 0-23.273-9.309-23.273-23.273s9.309-23.273 23.273-23.273h372.364c13.964 0 23.273 9.309 23.273 23.273s-9.309 23.273-23.273 23.273zM535.273 704h372.364c13.964 0 23.273 9.309 23.273 23.273s-9.309 23.273-23.273 23.273h-372.364c-13.964 0-23.273-9.309-23.273-23.273s9.309-23.273 23.273-23.273z" />
<glyph unicode="&#xe915;" glyph-name="warning" d="M876.579 259.749l-16.621 28.906c0 0.723-0.723 0.723-0.723 1.445-28.183 40.469-46.25 84.55-57.090 134.414-1.445 5.781-2.168 12.285-3.613 18.066-2.168 13.73-15.176 23.125-28.906 20.957s-23.125-15.176-20.957-28.906c1.445-7.227 2.168-13.73 3.613-20.234 12.285-56.367 33.242-105.507 64.316-151.757l16.621-28.906c0-0.723 0.723-0.723 0.723-1.445 5.059-7.949 7.949-17.344 7.949-26.738 0-26.738-21.68-48.418-48.418-48.418h-558.611c-26.738 0-48.418 21.68-48.418 48.418 0 9.394 2.891 18.789 7.949 26.738 0 0.723 0.723 0.723 0.723 1.445l16.621 28.906c46.25 67.929 71.543 148.867 75.156 239.198 5.059 138.749 57.090 223.3 148.144 237.030 12.285 2.168 21.68 12.285 21.68 25.293 0 32.519 26.016 58.535 58.535 58.535s58.535-26.016 58.535-58.535c0-7.227 3.613-15.176 9.394-19.512 10.84-8.672 26.738-7.227 35.41 3.613 4.336 5.059 5.781 10.84 5.781 17.344-0.723 59.98-49.14 107.675-109.121 107.675-52.754 0-97.558-37.578-106.953-88.164-104.062-26.016-166.21-127.187-171.269-281.112-2.891-80.937-25.293-153.203-66.484-213.183 0-0.723-0.723-0.723-0.723-1.445l-16.621-28.906c-10.117-15.898-15.898-34.687-15.898-53.476 0-54.199 44.082-99.004 99.004-99.004h185.722c3.613-48.418 44.082-86.718 93.222-86.718s89.609 38.301 93.222 86.718h185.722c54.199 0 99.004 44.082 99.004 99.004-0.723 18.066-6.504 36.855-16.621 52.754zM513.807 63.91c-25.293 0-46.25 18.789-49.863 43.359h99.726c-3.613-24.57-24.57-43.359-49.863-43.359zM727.712 535.080c0-0.002 0-0.003 0-0.005 0-15.166 12.295-27.461 27.461-27.461s27.461 12.295 27.461 27.461c0 0.002 0 0.004 0 0.006v0c0 0.002 0 0.003 0 0.005 0 15.166-12.295 27.461-27.461 27.461s-27.461-12.295-27.461-27.461c0-0.002 0-0.004 0-0.006v0zM705.31 633.361c0-15.166 12.295-27.461 27.461-27.461s27.461 12.295 27.461 27.461v0c0 15.166-12.295 27.461-27.461 27.461s-27.461-12.295-27.461-27.461v0zM654.001 716.466c0-15.166 12.295-27.461 27.461-27.461s27.461 12.295 27.461 27.461v0c0 15.166-12.295 27.461-27.461 27.461s-27.461-12.295-27.461-27.461v0z" />
</font>
</defs>
</svg>
